<?xml version="1.0" encoding="UTF-8" standalone="no"?>
<!DOCTYPE svg PUBLIC "-//W3C//DTD SVG 1.1//EN" "http://www.w3.org/Graphics/SVG/1.1/DTD/svg11.dtd">
<svg width="100%" height="100%" viewBox="0 0 800 800" version="1.1" xmlns="http://www.w3.org/2000/svg" xmlns:xlink="http://www.w3.org/1999/xlink" xml:space="preserve" xmlns:serif="http://www.serif.com/" style="fill-rule:evenodd;clip-rule:evenodd;stroke-linecap:round;">
    <g transform="matrix(12.5,0,0,12.5,0,0)">
        <path d="M37.09,36.41C37.09,36.41 45.45,35.81 45.96,33.29C45.96,33.29 41.83,31.07 42.63,23.29C43.43,15.51 40.89,11.43 36.46,12.64C36.46,12.64 29.78,4.64 23.73,12.46C23.73,12.46 20.97,15.23 21.17,21.58C21.37,27.93 21.07,31.15 17.44,33.17C19.67,35.594 22.941,36.795 26.21,36.39L26.5,40.71C26.511,40.975 26.329,41.212 26.07,41.27L20.4,42.58C16.31,43.65 12.78,45.98 11.2,49.91L9.79,53.43C9.735,53.563 9.707,53.706 9.707,53.85C9.707,54.449 10.192,54.945 10.79,54.96L53.18,54.96C53.778,54.945 54.263,54.449 54.263,53.85C54.263,53.706 54.235,53.563 54.18,53.43L52.88,50.2C51.23,46.11 47.88,43.71 43.57,42.76L37.39,41.62C37.125,41.539 36.958,41.274 37,41L37.09,36.41Z" style="fill:rgb(255,0,53);fill-rule:nonzero;stroke:black;stroke-width:0.96px;"/>
    </g>
</svg>
